<svg id="Слой_1" data-name="Слой 1" xmlns="http://www.w3.org/2000/svg" viewBox="0 0 391.94 391.94"><defs><style>.cls-1{fill:#4259ed;}.cls-2{fill:#fff;}</style></defs><rect class="cls-1" width="391.94" height="391.94" rx="65.79"/><path class="cls-2" d="M316.67,86.7V305.23a10.56,10.56,0,0,1-10.56,10.57H253.28A51.77,51.77,0,0,1,205.94,285L156.52,173.13v132.1A10.57,10.57,0,0,1,146,315.8H85.83a10.57,10.57,0,0,1-10.57-10.57V86.7A10.56,10.56,0,0,1,85.83,76.14H192.1a44.14,44.14,0,0,1,44.14,44.14v.6A43.24,43.24,0,0,1,221.73,153a40.92,40.92,0,1,0,54.75,0A42.53,42.53,0,0,1,262,121.48v-1.2a44.14,44.14,0,0,1,44.14-44.14h0A10.56,10.56,0,0,1,316.67,86.7Z"/></svg>